<?xml version="1.0" encoding="UTF-8" standalone="no"?>
<!DOCTYPE svg PUBLIC "-//W3C//DTD SVG 1.1//EN"
 "http://www.w3.org/Graphics/SVG/1.1/DTD/svg11.dtd">
<!-- Generated by graphviz version 15.1.0 (20260618.0150)
 -->
<!-- Title: dependency&#45;cruiser output Pages: 1 -->
<svg width="743pt" height="1335pt"
 viewBox="0.00 0.00 743.00 1335.00" xmlns="http://www.w3.org/2000/svg" xmlns:xlink="http://www.w3.org/1999/xlink">
<g id="graph0" class="graph" transform="scale(1 1) rotate(0) translate(4 1331)">
<title>dependency&#45;cruiser output</title>
<polygon fill="#e2ddd5" stroke="none" points="-4,4 -4,-1331 739,-1331 739,4 -4,4"/>
<g id="clust1" class="cluster">
<title>cluster_server</title>
<path fill="#ffffff" stroke="black" stroke-width="2" d="M64.25,-8C64.25,-8 715,-8 715,-8 721,-8 727,-14 727,-20 727,-20 727,-875 727,-875 727,-881 721,-887 715,-887 715,-887 64.25,-887 64.25,-887 58.25,-887 52.25,-881 52.25,-875 52.25,-875 52.25,-20 52.25,-20 52.25,-14 58.25,-8 64.25,-8"/>
<text xml:space="preserve" text-anchor="middle" x="389.62" y="-874.45" font-family="Helvetica,sans-Serif" font-weight="bold" font-size="9.00">server</text>
</g>
<g id="clust2" class="cluster">
<title>cluster_server/dbConnect</title>
<path fill="#ffffff" stroke="black" stroke-width="2" d="M214.38,-679C214.38,-679 275.62,-679 275.62,-679 281.62,-679 287.62,-685 287.62,-691 287.62,-691 287.62,-720 287.62,-720 287.62,-726 281.62,-732 275.62,-732 275.62,-732 214.38,-732 214.38,-732 208.38,-732 202.38,-726 202.38,-720 202.38,-720 202.38,-691 202.38,-691 202.38,-685 208.38,-679 214.38,-679"/>
<text xml:space="preserve" text-anchor="middle" x="245" y="-719.45" font-family="Helvetica,sans-Serif" font-weight="bold" font-size="9.00">dbConnect</text>
</g>
<g id="clust3" class="cluster">
<title>cluster_server/middleware</title>
<path fill="#ffffff" stroke="black" stroke-width="2" d="M349.5,-674C349.5,-674 446,-674 446,-674 452,-674 458,-680 458,-686 458,-686 458,-715 458,-715 458,-721 452,-727 446,-727 446,-727 349.5,-727 349.5,-727 343.5,-727 337.5,-721 337.5,-715 337.5,-715 337.5,-686 337.5,-686 337.5,-680 343.5,-674 349.5,-674"/>
<text xml:space="preserve" text-anchor="middle" x="397.75" y="-714.45" font-family="Helvetica,sans-Serif" font-weight="bold" font-size="9.00">middleware</text>
</g>
<g id="clust4" class="cluster">
<title>cluster_server/modules</title>
<path fill="#ffffff" stroke="black" stroke-width="2" d="M178.5,-16C178.5,-16 707,-16 707,-16 713,-16 719,-22 719,-28 719,-28 719,-461 719,-461 719,-467 713,-473 707,-473 707,-473 178.5,-473 178.5,-473 172.5,-473 166.5,-467 166.5,-461 166.5,-461 166.5,-28 166.5,-28 166.5,-22 172.5,-16 178.5,-16"/>
<text xml:space="preserve" text-anchor="middle" x="442.75" y="-460.45" font-family="Helvetica,sans-Serif" font-weight="bold" font-size="9.00">modules</text>
</g>
<g id="clust5" class="cluster">
<title>cluster_server/modules/auth</title>
<path fill="#ffffff" stroke="black" stroke-width="2" d="M186.5,-24C186.5,-24 699,-24 699,-24 705,-24 711,-30 711,-36 711,-36 711,-434 711,-434 711,-440 705,-446 699,-446 699,-446 186.5,-446 186.5,-446 180.5,-446 174.5,-440 174.5,-434 174.5,-434 174.5,-36 174.5,-36 174.5,-30 180.5,-24 186.5,-24"/>
<text xml:space="preserve" text-anchor="middle" x="442.75" y="-433.45" font-family="Helvetica,sans-Serif" font-weight="bold" font-size="9.00">auth</text>
</g>
<g id="clust6" class="cluster">
<title>cluster_server/modules/auth/__tests__</title>
<path fill="#ffffff" stroke="black" stroke-width="2" d="M194.5,-119C194.5,-119 295.5,-119 295.5,-119 301.5,-119 307.5,-125 307.5,-131 307.5,-131 307.5,-284 307.5,-284 307.5,-290 301.5,-296 295.5,-296 295.5,-296 194.5,-296 194.5,-296 188.5,-296 182.5,-290 182.5,-284 182.5,-284 182.5,-131 182.5,-131 182.5,-125 188.5,-119 194.5,-119"/>
<text xml:space="preserve" text-anchor="middle" x="245" y="-283.45" font-family="Helvetica,sans-Serif" font-weight="bold" font-size="9.00">__tests__</text>
</g>
<g id="clust7" class="cluster">
<title>cluster_server/modules/auth/controllers</title>
<path fill="#ffffff" stroke="black" stroke-width="2" d="M500,-32C500,-32 601.75,-32 601.75,-32 607.75,-32 613.75,-38 613.75,-44 613.75,-44 613.75,-135 613.75,-135 613.75,-141 607.75,-147 601.75,-147 601.75,-147 500,-147 500,-147 494,-147 488,-141 488,-135 488,-135 488,-44 488,-44 488,-38 494,-32 500,-32"/>
<text xml:space="preserve" text-anchor="middle" x="550.88" y="-134.45" font-family="Helvetica,sans-Serif" font-weight="bold" font-size="9.00">controllers</text>
</g>
<g id="clust8" class="cluster">
<title>cluster_server/modules/auth/middleware</title>
<path fill="#ffffff" stroke="black" stroke-width="2" d="M504.88,-304C504.88,-304 596.88,-304 596.88,-304 602.88,-304 608.88,-310 608.88,-316 608.88,-316 608.88,-407 608.88,-407 608.88,-413 602.88,-419 596.88,-419 596.88,-419 504.88,-419 504.88,-419 498.88,-419 492.88,-413 492.88,-407 492.88,-407 492.88,-316 492.88,-316 492.88,-310 498.88,-304 504.88,-304"/>
<text xml:space="preserve" text-anchor="middle" x="550.88" y="-406.45" font-family="Helvetica,sans-Serif" font-weight="bold" font-size="9.00">middleware</text>
</g>
<g id="clust9" class="cluster">
<title>cluster_server/modules/auth/services</title>
<path fill="#ffffff" stroke="black" stroke-width="2" d="M504.5,-181C504.5,-181 597.25,-181 597.25,-181 603.25,-181 609.25,-187 609.25,-193 609.25,-193 609.25,-284 609.25,-284 609.25,-290 603.25,-296 597.25,-296 597.25,-296 504.5,-296 504.5,-296 498.5,-296 492.5,-290 492.5,-284 492.5,-284 492.5,-193 492.5,-193 492.5,-187 498.5,-181 504.5,-181"/>
<text xml:space="preserve" text-anchor="middle" x="550.88" y="-283.45" font-family="Helvetica,sans-Serif" font-weight="bold" font-size="9.00">services</text>
</g>
<g id="clust10" class="cluster">
<title>cluster_server/routes</title>
<path fill="#ffffff" stroke="black" stroke-width="2" d="M358.5,-745C358.5,-745 437,-745 437,-745 443,-745 449,-751 449,-757 449,-757 449,-848 449,-848 449,-854 443,-860 437,-860 437,-860 358.5,-860 358.5,-860 352.5,-860 346.5,-854 346.5,-848 346.5,-848 346.5,-757 346.5,-757 346.5,-751 352.5,-745 358.5,-745"/>
<text xml:space="preserve" text-anchor="middle" x="397.75" y="-847.45" font-family="Helvetica,sans-Serif" font-weight="bold" font-size="9.00">routes</text>
</g>
<g id="clust11" class="cluster">
<title>cluster_server/tests</title>
<path fill="#ffffff" stroke="black" stroke-width="2" d="M327.5,-481C327.5,-481 468,-481 468,-481 474,-481 480,-487 480,-493 480,-493 480,-654 480,-654 480,-660 474,-666 468,-666 468,-666 327.5,-666 327.5,-666 321.5,-666 315.5,-660 315.5,-654 315.5,-654 315.5,-493 315.5,-493 315.5,-487 321.5,-481 327.5,-481"/>
<text xml:space="preserve" text-anchor="middle" x="397.75" y="-653.45" font-family="Helvetica,sans-Serif" font-weight="bold" font-size="9.00">tests</text>
</g>
<g id="clust12" class="cluster">
<title>cluster_server/tests/middleware</title>
<path fill="#ffffff" stroke="black" stroke-width="2" d="M335.5,-489C335.5,-489 460,-489 460,-489 466,-489 472,-495 472,-501 472,-501 472,-627 472,-627 472,-633 466,-639 460,-639 460,-639 335.5,-639 335.5,-639 329.5,-639 323.5,-633 323.5,-627 323.5,-627 323.5,-501 323.5,-501 323.5,-495 329.5,-489 335.5,-489"/>
<text xml:space="preserve" text-anchor="middle" x="397.75" y="-626.45" font-family="Helvetica,sans-Serif" font-weight="bold" font-size="9.00">middleware</text>
</g>
<g id="clust13" class="cluster">
<title>cluster_server/tests/middleware/auth</title>
<path fill="#ffffff" stroke="black" stroke-width="2" d="M343.5,-497C343.5,-497 452,-497 452,-497 458,-497 464,-503 464,-509 464,-509 464,-600 464,-600 464,-606 458,-612 452,-612 452,-612 343.5,-612 343.5,-612 337.5,-612 331.5,-606 331.5,-600 331.5,-600 331.5,-509 331.5,-509 331.5,-503 337.5,-497 343.5,-497"/>
<text xml:space="preserve" text-anchor="middle" x="397.75" y="-599.45" font-family="Helvetica,sans-Serif" font-weight="bold" font-size="9.00">auth</text>
</g>
<g id="clust14" class="cluster">
<title>cluster_src</title>
<path fill="#ffffff" stroke="black" stroke-width="2" d="M20,-895C20,-895 268.12,-895 268.12,-895 274.12,-895 280.12,-901 280.12,-907 280.12,-907 280.12,-1307 280.12,-1307 280.12,-1313 274.12,-1319 268.12,-1319 268.12,-1319 20,-1319 20,-1319 14,-1319 8,-1313 8,-1307 8,-1307 8,-907 8,-907 8,-901 14,-895 20,-895"/>
<text xml:space="preserve" text-anchor="middle" x="144.06" y="-1306.45" font-family="Helvetica,sans-Serif" font-weight="bold" font-size="9.00">src</text>
</g>
<g id="clust15" class="cluster">
<title>cluster_src/components</title>
<path fill="#ffffff" stroke="black" stroke-width="2" d="M55.75,-903C55.75,-903 118.75,-903 118.75,-903 124.75,-903 130.75,-909 130.75,-915 130.75,-915 130.75,-979 130.75,-979 130.75,-985 124.75,-991 118.75,-991 118.75,-991 55.75,-991 55.75,-991 49.75,-991 43.75,-985 43.75,-979 43.75,-979 43.75,-915 43.75,-915 43.75,-909 49.75,-903 55.75,-903"/>
<text xml:space="preserve" text-anchor="middle" x="87.25" y="-978.45" font-family="Helvetica,sans-Serif" font-weight="bold" font-size="9.00">components</text>
</g>
<g id="clust16" class="cluster">
<title>cluster_src/components/ui</title>
<path fill="#ffffff" stroke="black" stroke-width="2" d="M63.75,-911C63.75,-911 110.75,-911 110.75,-911 116.75,-911 122.75,-917 122.75,-923 122.75,-923 122.75,-952 122.75,-952 122.75,-958 116.75,-964 110.75,-964 110.75,-964 63.75,-964 63.75,-964 57.75,-964 51.75,-958 51.75,-952 51.75,-952 51.75,-923 51.75,-923 51.75,-917 57.75,-911 63.75,-911"/>
<text xml:space="preserve" text-anchor="middle" x="87.25" y="-951.45" font-family="Helvetica,sans-Serif" font-weight="bold" font-size="9.00">ui</text>
</g>
<g id="clust17" class="cluster">
<title>cluster_src/lib</title>
<path fill="#ffffff" stroke="black" stroke-width="2" d="M64.25,-999C64.25,-999 110.25,-999 110.25,-999 116.25,-999 122.25,-1005 122.25,-1011 122.25,-1011 122.25,-1040 122.25,-1040 122.25,-1046 116.25,-1052 110.25,-1052 110.25,-1052 64.25,-1052 64.25,-1052 58.25,-1052 52.25,-1046 52.25,-1040 52.25,-1040 52.25,-1011 52.25,-1011 52.25,-1005 58.25,-999 64.25,-999"/>
<text xml:space="preserve" text-anchor="middle" x="87.25" y="-1039.45" font-family="Helvetica,sans-Serif" font-weight="bold" font-size="9.00">lib</text>
</g>
<g id="clust18" class="cluster">
<title>cluster_src/pages</title>
<path fill="#ffffff" stroke="black" stroke-width="2" d="M28,-1060C28,-1060 146.5,-1060 146.5,-1060 152.5,-1060 158.5,-1066 158.5,-1072 158.5,-1072 158.5,-1162 158.5,-1162 158.5,-1168 152.5,-1174 146.5,-1174 146.5,-1174 28,-1174 28,-1174 22,-1174 16,-1168 16,-1162 16,-1162 16,-1072 16,-1072 16,-1066 22,-1060 28,-1060"/>
<text xml:space="preserve" text-anchor="middle" x="87.25" y="-1161.45" font-family="Helvetica,sans-Serif" font-weight="bold" font-size="9.00">pages</text>
</g>
<g id="clust19" class="cluster">
<title>cluster_src/pages/dev</title>
<path fill="#ffffff" stroke="black" stroke-width="2" d="M36,-1068C36,-1068 138.5,-1068 138.5,-1068 144.5,-1068 150.5,-1074 150.5,-1080 150.5,-1080 150.5,-1109 150.5,-1109 150.5,-1115 144.5,-1121 138.5,-1121 138.5,-1121 36,-1121 36,-1121 30,-1121 24,-1115 24,-1109 24,-1109 24,-1080 24,-1080 24,-1074 30,-1068 36,-1068"/>
<text xml:space="preserve" text-anchor="middle" x="87.25" y="-1108.45" font-family="Helvetica,sans-Serif" font-weight="bold" font-size="9.00">dev</text>
</g>
<g id="clust20" class="cluster">
<title>cluster_src/router</title>
<path fill="#ffffff" stroke="black" stroke-width="2" d="M53.62,-1182C53.62,-1182 120.88,-1182 120.88,-1182 126.88,-1182 132.88,-1188 132.88,-1194 132.88,-1194 132.88,-1254 132.88,-1254 132.88,-1260 126.88,-1266 120.88,-1266 120.88,-1266 53.62,-1266 53.62,-1266 47.62,-1266 41.62,-1260 41.62,-1254 41.62,-1254 41.62,-1194 41.62,-1194 41.62,-1188 47.62,-1182 53.62,-1182"/>
<text xml:space="preserve" text-anchor="middle" x="87.25" y="-1253.45" font-family="Helvetica,sans-Serif" font-weight="bold" font-size="9.00">router</text>
</g>
<!-- server/dbConnect/createPool.js -->
<g id="node1" class="node">
<title>server/dbConnect/createPool.js</title>
<g id="a_node1"><a xlink:href="server/dbConnect/createPool.js" xlink:title="createPool.js">
<path fill="#c43a47" stroke="#843145" d="M273.46,-705.25C273.46,-705.25 216.54,-705.25 216.54,-705.25 213.46,-705.25 210.38,-702.17 210.38,-699.08 210.38,-699.08 210.38,-692.92 210.38,-692.92 210.38,-689.83 213.46,-686.75 216.54,-686.75 216.54,-686.75 273.46,-686.75 273.46,-686.75 276.54,-686.75 279.62,-689.83 279.62,-692.92 279.62,-692.92 279.62,-699.08 279.62,-699.08 279.62,-702.17 276.54,-705.25 273.46,-705.25"/>
<text xml:space="preserve" text-anchor="start" x="218.38" y="-693" font-family="Helvetica,sans-Serif" font-size="9.00" fill="#ffffff">createPool.js</text>
</a>
</g>
</g>
<!-- server/expressApp.js -->
<g id="node2" class="node">
<title>server/expressApp.js</title>
<g id="a_node2"><a xlink:href="server/expressApp.js" xlink:title="expressApp.js">
<path fill="#c43a47" stroke="#843145" d="M275.71,-758.25C275.71,-758.25 214.29,-758.25 214.29,-758.25 211.21,-758.25 208.12,-755.17 208.12,-752.08 208.12,-752.08 208.12,-745.92 208.12,-745.92 208.12,-742.83 211.21,-739.75 214.29,-739.75 214.29,-739.75 275.71,-739.75 275.71,-739.75 278.79,-739.75 281.88,-742.83 281.88,-745.92 281.88,-745.92 281.88,-752.08 281.88,-752.08 281.88,-755.17 278.79,-758.25 275.71,-758.25"/>
<text xml:space="preserve" text-anchor="start" x="216.12" y="-746" font-family="Helvetica,sans-Serif" font-size="9.00" fill="#ffffff">expressApp.js</text>
</a>
</g>
</g>
<!-- server/middleware/sessionMiddleware.js -->
<g id="node3" class="node">
<title>server/middleware/sessionMiddleware.js</title>
<g id="a_node3"><a xlink:href="server/middleware/sessionMiddleware.js" xlink:title="sessionMiddleware.js">
<path fill="#c43a47" stroke="#843145" d="M443.83,-700.25C443.83,-700.25 351.67,-700.25 351.67,-700.25 348.58,-700.25 345.5,-697.17 345.5,-694.08 345.5,-694.08 345.5,-687.92 345.5,-687.92 345.5,-684.83 348.58,-681.75 351.67,-681.75 351.67,-681.75 443.83,-681.75 443.83,-681.75 446.92,-681.75 450,-684.83 450,-687.92 450,-687.92 450,-694.08 450,-694.08 450,-697.17 446.92,-700.25 443.83,-700.25"/>
<text xml:space="preserve" text-anchor="start" x="353.5" y="-688" font-family="Helvetica,sans-Serif" font-size="9.00" fill="#ffffff">sessionMiddleware.js</text>
</a>
</g>
</g>
<!-- server/expressApp.js&#45;&gt;server/middleware/sessionMiddleware.js -->
<g id="edge1" class="edge">
<title>server/expressApp.js&#45;&gt;server/middleware/sessionMiddleware.js</title>
<path fill="none" stroke="#3e6c67" stroke-width="2" d="M282.09,-747.43C291.38,-745.38 300.67,-741.64 307.5,-735 317.71,-725.08 304.98,-713.58 315.5,-704 321.35,-698.68 328.46,-695.05 336.03,-692.63"/>
<polygon fill="#3e6c67" stroke="#3e6c67" stroke-width="2" points="342.7,-690.92 336.7,-695.71 341.79,-691.67 336.04,-693.14 335.92,-692.66 335.79,-692.17 341.55,-690.7 335.14,-689.61 342.7,-690.92"/>
</g>
<!-- server/modules/auth/authRoutes.js -->
<g id="node4" class="node">
<title>server/modules/auth/authRoutes.js</title>
<g id="a_node4"><a xlink:href="server/modules/auth/authRoutes.js" xlink:title="authRoutes.js">
<path fill="#c43a47" stroke="#843145" d="M427.71,-207.25C427.71,-207.25 367.79,-207.25 367.79,-207.25 364.71,-207.25 361.62,-204.17 361.62,-201.08 361.62,-201.08 361.62,-194.92 361.62,-194.92 361.62,-191.83 364.71,-188.75 367.79,-188.75 367.79,-188.75 427.71,-188.75 427.71,-188.75 430.79,-188.75 433.88,-191.83 433.88,-194.92 433.88,-194.92 433.88,-201.08 433.88,-201.08 433.88,-204.17 430.79,-207.25 427.71,-207.25"/>
<text xml:space="preserve" text-anchor="start" x="369.62" y="-195" font-family="Helvetica,sans-Serif" font-size="9.00" fill="#ffffff">authRoutes.js</text>
</a>
</g>
</g>
<!-- server/expressApp.js&#45;&gt;server/modules/auth/authRoutes.js -->
<g id="edge2" class="edge">
<title>server/expressApp.js&#45;&gt;server/modules/auth/authRoutes.js</title>
<path fill="none" stroke="#3e6c67" stroke-width="2" d="M282.13,-748.56C291.76,-746.59 301.23,-742.6 307.5,-735 316.03,-724.67 313.49,-507.24 315.5,-494 331.81,-386.5 373.73,-262.34 390.08,-216.35"/>
<polygon fill="#3e6c67" stroke="#3e6c67" stroke-width="2" points="392.42,-209.83 393.02,-217.48 392.53,-210.99 390.53,-216.58 390.06,-216.41 389.59,-216.24 391.59,-210.66 387.09,-215.35 392.42,-209.83"/>
</g>
<!-- server/modules/auth/middleware/requireAuth.js -->
<g id="node5" class="node">
<title>server/modules/auth/middleware/requireAuth.js</title>
<g id="a_node5"><a xlink:href="server/modules/auth/middleware/requireAuth.js" xlink:title="requireAuth.js">
<path fill="#c43a47" stroke="#843145" d="M581.21,-361.25C581.21,-361.25 520.54,-361.25 520.54,-361.25 517.46,-361.25 514.38,-358.17 514.38,-355.08 514.38,-355.08 514.38,-348.92 514.38,-348.92 514.38,-345.83 517.46,-342.75 520.54,-342.75 520.54,-342.75 581.21,-342.75 581.21,-342.75 584.29,-342.75 587.38,-345.83 587.38,-348.92 587.38,-348.92 587.38,-355.08 587.38,-355.08 587.38,-358.17 584.29,-361.25 581.21,-361.25"/>
<text xml:space="preserve" text-anchor="start" x="522.38" y="-349" font-family="Helvetica,sans-Serif" font-size="9.00" fill="#ffffff">requireAuth.js</text>
</a>
</g>
</g>
<!-- server/expressApp.js&#45;&gt;server/modules/auth/middleware/requireAuth.js -->
<g id="edge3" class="edge">
<title>server/expressApp.js&#45;&gt;server/modules/auth/middleware/requireAuth.js</title>
<path fill="none" stroke="#3e6c67" stroke-width="2" d="M282.05,-745.18C292.81,-744.09 304.63,-742.94 315.5,-742 333.76,-740.41 467.37,-743.28 480,-730 493.86,-715.42 475.51,-383.77 488,-368 492.46,-362.37 498.61,-358.57 505.32,-356.03"/>
<polygon fill="#3e6c67" stroke="#3e6c67" stroke-width="2" points="511.7,-354.13 505.89,-359.14 510.82,-354.91 505.13,-356.6 504.99,-356.12 504.85,-355.65 510.54,-353.95 504.09,-353.11 511.7,-354.13"/>
</g>
<!-- server/routes/accountRoutes.js -->
<g id="node6" class="node">
<title>server/routes/accountRoutes.js</title>
<g id="a_node6"><a xlink:href="server/routes/accountRoutes.js" xlink:title="accountRoutes.js">
<path fill="#c43a47" stroke="#843145" d="M434.83,-771.25C434.83,-771.25 360.67,-771.25 360.67,-771.25 357.58,-771.25 354.5,-768.17 354.5,-765.08 354.5,-765.08 354.5,-758.92 354.5,-758.92 354.5,-755.83 357.58,-752.75 360.67,-752.75 360.67,-752.75 434.83,-752.75 434.83,-752.75 437.92,-752.75 441,-755.83 441,-758.92 441,-758.92 441,-765.08 441,-765.08 441,-768.17 437.92,-771.25 434.83,-771.25"/>
<text xml:space="preserve" text-anchor="start" x="362.5" y="-759" font-family="Helvetica,sans-Serif" font-size="9.00" fill="#ffffff">accountRoutes.js</text>
</a>
</g>
</g>
<!-- server/expressApp.js&#45;&gt;server/routes/accountRoutes.js -->
<g id="edge4" class="edge">
<title>server/expressApp.js&#45;&gt;server/routes/accountRoutes.js</title>
<path fill="none" stroke="#3e6c67" stroke-width="2" d="M282.11,-752.11C300.92,-753.74 324.25,-755.75 344.95,-757.53"/>
<polygon fill="#3e6c67" stroke="#3e6c67" stroke-width="2" points="351.82,-758.13 344.57,-760.66 350.72,-758.53 344.8,-758.02 344.85,-757.52 344.89,-757.03 350.8,-757.54 345.12,-754.39 351.82,-758.13"/>
</g>
<!-- server/routes/adminRoutes.js -->
<g id="node7" class="node">
<title>server/routes/adminRoutes.js</title>
<g id="a_node7"><a xlink:href="server/routes/adminRoutes.js" xlink:title="adminRoutes.js">
<path fill="#c43a47" stroke="#843145" d="M431.46,-802.25C431.46,-802.25 364.04,-802.25 364.04,-802.25 360.96,-802.25 357.88,-799.17 357.88,-796.08 357.88,-796.08 357.88,-789.92 357.88,-789.92 357.88,-786.83 360.96,-783.75 364.04,-783.75 364.04,-783.75 431.46,-783.75 431.46,-783.75 434.54,-783.75 437.62,-786.83 437.62,-789.92 437.62,-789.92 437.62,-796.08 437.62,-796.08 437.62,-799.17 434.54,-802.25 431.46,-802.25"/>
<text xml:space="preserve" text-anchor="start" x="365.88" y="-790" font-family="Helvetica,sans-Serif" font-size="9.00" fill="#ffffff">adminRoutes.js</text>
</a>
</g>
</g>
<!-- server/expressApp.js&#45;&gt;server/routes/adminRoutes.js -->
<g id="edge5" class="edge">
<title>server/expressApp.js&#45;&gt;server/routes/adminRoutes.js</title>
<path fill="none" stroke="#3e6c67" stroke-width="2" d="M266.92,-758.63C280.53,-764.6 298.79,-772.04 315.5,-777 326.05,-780.13 337.56,-782.82 348.51,-785.06"/>
<polygon fill="#3e6c67" stroke="#3e6c67" stroke-width="2" points="355.15,-786.36 347.67,-788.1 354.01,-786.64 348.18,-785.5 348.28,-785.01 348.37,-784.52 354.2,-785.66 348.88,-781.92 355.15,-786.36"/>
</g>
<!-- server/routes/apiRoutes.js -->
<g id="node8" class="node">
<title>server/routes/apiRoutes.js</title>
<g id="a_node8"><a xlink:href="server/routes/apiRoutes.js" xlink:title="apiRoutes.js">
<path fill="#c43a47" stroke="#843145" d="M425.08,-833.25C425.08,-833.25 370.42,-833.25 370.42,-833.25 367.33,-833.25 364.25,-830.17 364.25,-827.08 364.25,-827.08 364.25,-820.92 364.25,-820.92 364.25,-817.83 367.33,-814.75 370.42,-814.75 370.42,-814.75 425.08,-814.75 425.08,-814.75 428.17,-814.75 431.25,-817.83 431.25,-820.92 431.25,-820.92 431.25,-827.08 431.25,-827.08 431.25,-830.17 428.17,-833.25 425.08,-833.25"/>
<text xml:space="preserve" text-anchor="start" x="372.25" y="-821" font-family="Helvetica,sans-Serif" font-size="9.00" fill="#ffffff">apiRoutes.js</text>
</a>
</g>
</g>
<!-- server/expressApp.js&#45;&gt;server/routes/apiRoutes.js -->
<g id="edge6" class="edge">
<title>server/expressApp.js&#45;&gt;server/routes/apiRoutes.js</title>
<path fill="none" stroke="#3e6c67" stroke-width="2" d="M254.36,-758.69C266.43,-772.02 290.12,-795.77 315.5,-808 327.59,-813.83 341.66,-817.53 354.67,-819.89"/>
<polygon fill="#3e6c67" stroke="#3e6c67" stroke-width="2" points="361.5,-820.99 354.09,-822.98 360.37,-821.31 354.51,-820.37 354.59,-819.87 354.67,-819.38 360.53,-820.33 355.09,-816.76 361.5,-820.99"/>
</g>
<!-- server/modules/auth/authRepository.js -->
<g id="node14" class="node">
<title>server/modules/auth/authRepository.js</title>
<g id="a_node14"><a xlink:href="server/modules/auth/authRepository.js" xlink:title="authRepository.js">
<path fill="#c43a47" stroke="#843145" d="M587.96,-173.25C587.96,-173.25 513.79,-173.25 513.79,-173.25 510.71,-173.25 507.62,-170.17 507.62,-167.08 507.62,-167.08 507.62,-160.92 507.62,-160.92 507.62,-157.83 510.71,-154.75 513.79,-154.75 513.79,-154.75 587.96,-154.75 587.96,-154.75 591.04,-154.75 594.12,-157.83 594.12,-160.92 594.12,-160.92 594.12,-167.08 594.12,-167.08 594.12,-170.17 591.04,-173.25 587.96,-173.25"/>
<text xml:space="preserve" text-anchor="start" x="515.62" y="-161" font-family="Helvetica,sans-Serif" font-size="9.00" fill="#ffffff">authRepository.js</text>
</a>
</g>
</g>
<!-- server/modules/auth/authRoutes.js&#45;&gt;server/modules/auth/authRepository.js -->
<g id="edge12" class="edge">
<title>server/modules/auth/authRoutes.js&#45;&gt;server/modules/auth/authRepository.js</title>
<path fill="none" stroke="#3e6c67" stroke-width="2" d="M434.18,-190.03C453.18,-185.75 476.95,-180.41 497.99,-175.67"/>
<polygon fill="#3e6c67" stroke="#3e6c67" stroke-width="2" points="504.75,-174.15 498.61,-178.76 503.82,-174.87 498.03,-176.18 497.92,-175.69 497.81,-175.2 503.6,-173.9 497.23,-172.62 504.75,-174.15"/>
</g>
<!-- server/modules/auth/controllers/loginController.js -->
<g id="node15" class="node">
<title>server/modules/auth/controllers/loginController.js</title>
<g id="a_node15"><a xlink:href="server/modules/auth/controllers/loginController.js" xlink:title="loginController.js">
<path fill="#c43a47" stroke="#843145" d="M587.21,-120.25C587.21,-120.25 514.54,-120.25 514.54,-120.25 511.46,-120.25 508.38,-117.17 508.38,-114.08 508.38,-114.08 508.38,-107.92 508.38,-107.92 508.38,-104.83 511.46,-101.75 514.54,-101.75 514.54,-101.75 587.21,-101.75 587.21,-101.75 590.29,-101.75 593.38,-104.83 593.38,-107.92 593.38,-107.92 593.38,-114.08 593.38,-114.08 593.38,-117.17 590.29,-120.25 587.21,-120.25"/>
<text xml:space="preserve" text-anchor="start" x="516.38" y="-108" font-family="Helvetica,sans-Serif" font-size="9.00" fill="#ffffff">loginController.js</text>
</a>
</g>
</g>
<!-- server/modules/auth/authRoutes.js&#45;&gt;server/modules/auth/controllers/loginController.js -->
<g id="edge13" class="edge">
<title>server/modules/auth/authRoutes.js&#45;&gt;server/modules/auth/controllers/loginController.js</title>
<path fill="none" stroke="#3e6c67" stroke-width="2" d="M407.32,-188.34C422.1,-172.3 454.1,-140.36 488,-124 491.5,-122.31 495.22,-120.84 499.03,-119.56"/>
<polygon fill="#3e6c67" stroke="#3e6c67" stroke-width="2" points="505.68,-117.59 499.86,-122.6 504.8,-118.37 499.11,-120.05 498.97,-119.58 498.83,-119.1 504.52,-117.41 498.07,-116.55 505.68,-117.59"/>
</g>
<!-- server/modules/auth/controllers/registerController.js -->
<g id="node16" class="node">
<title>server/modules/auth/controllers/registerController.js</title>
<g id="a_node16"><a xlink:href="server/modules/auth/controllers/registerController.js" xlink:title="registerController.js">
<path fill="#c43a47" stroke="#843145" d="M592.46,-58.25C592.46,-58.25 509.29,-58.25 509.29,-58.25 506.21,-58.25 503.12,-55.17 503.12,-52.08 503.12,-52.08 503.12,-45.92 503.12,-45.92 503.12,-42.83 506.21,-39.75 509.29,-39.75 509.29,-39.75 592.46,-39.75 592.46,-39.75 595.54,-39.75 598.62,-42.83 598.62,-45.92 598.62,-45.92 598.62,-52.08 598.62,-52.08 598.62,-55.17 595.54,-58.25 592.46,-58.25"/>
<text xml:space="preserve" text-anchor="start" x="511.12" y="-46" font-family="Helvetica,sans-Serif" font-size="9.00" fill="#ffffff">registerController.js</text>
</a>
</g>
</g>
<!-- server/modules/auth/authRoutes.js&#45;&gt;server/modules/auth/controllers/registerController.js -->
<g id="edge14" class="edge">
<title>server/modules/auth/authRoutes.js&#45;&gt;server/modules/auth/controllers/registerController.js</title>
<path fill="none" stroke="#3e6c67" stroke-width="2" d="M402.28,-188.55C411.95,-164.06 441.26,-98.12 488,-65 489.94,-63.62 491.99,-62.37 494.12,-61.22"/>
<polygon fill="#3e6c67" stroke="#3e6c67" stroke-width="2" points="500.42,-58.32 495.38,-64.11 499.66,-59.22 494.27,-61.7 494.06,-61.24 493.85,-60.79 499.25,-58.31 492.74,-58.38 500.42,-58.32"/>
</g>
<!-- server/modules/auth/controllers/verifyEmailController.js -->
<g id="node17" class="node">
<title>server/modules/auth/controllers/verifyEmailController.js</title>
<g id="a_node17"><a xlink:href="server/modules/auth/controllers/verifyEmailController.js" xlink:title="verifyEmailController.js">
<path fill="#c43a47" stroke="#843145" d="M599.58,-89.25C599.58,-89.25 502.17,-89.25 502.17,-89.25 499.08,-89.25 496,-86.17 496,-83.08 496,-83.08 496,-76.92 496,-76.92 496,-73.83 499.08,-70.75 502.17,-70.75 502.17,-70.75 599.58,-70.75 599.58,-70.75 602.67,-70.75 605.75,-73.83 605.75,-76.92 605.75,-76.92 605.75,-83.08 605.75,-83.08 605.75,-86.17 602.67,-89.25 599.58,-89.25"/>
<text xml:space="preserve" text-anchor="start" x="504" y="-77" font-family="Helvetica,sans-Serif" font-size="9.00" fill="#ffffff">verifyEmailController.js</text>
</a>
</g>
</g>
<!-- server/modules/auth/authRoutes.js&#45;&gt;server/modules/auth/controllers/verifyEmailController.js -->
<g id="edge15" class="edge">
<title>server/modules/auth/authRoutes.js&#45;&gt;server/modules/auth/controllers/verifyEmailController.js</title>
<path fill="none" stroke="#3e6c67" stroke-width="2" d="M404.31,-188.43C416.64,-168.1 448.34,-120.45 488,-96 489.36,-95.16 490.77,-94.36 492.21,-93.61"/>
<polygon fill="#3e6c67" stroke="#3e6c67" stroke-width="2" points="498.55,-90.73 493.48,-96.49 497.79,-91.62 492.38,-94.08 492.17,-93.62 491.97,-93.17 497.37,-90.71 490.87,-90.76 498.55,-90.73"/>
</g>
<!-- server/modules/auth/middleware/requireGuest.js -->
<g id="node18" class="node">
<title>server/modules/auth/middleware/requireGuest.js</title>
<g id="a_node18"><a xlink:href="server/modules/auth/middleware/requireGuest.js" xlink:title="requireGuest.js">
<path fill="#c43a47" stroke="#843145" d="M583.83,-330.25C583.83,-330.25 517.92,-330.25 517.92,-330.25 514.83,-330.25 511.75,-327.17 511.75,-324.08 511.75,-324.08 511.75,-317.92 511.75,-317.92 511.75,-314.83 514.83,-311.75 517.92,-311.75 517.92,-311.75 583.83,-311.75 583.83,-311.75 586.92,-311.75 590,-314.83 590,-317.92 590,-317.92 590,-324.08 590,-324.08 590,-327.17 586.92,-330.25 583.83,-330.25"/>
<text xml:space="preserve" text-anchor="start" x="519.75" y="-318" font-family="Helvetica,sans-Serif" font-size="9.00" fill="#ffffff">requireGuest.js</text>
</a>
</g>
</g>
<!-- server/modules/auth/authRoutes.js&#45;&gt;server/modules/auth/middleware/requireGuest.js -->
<g id="edge16" class="edge">
<title>server/modules/auth/authRoutes.js&#45;&gt;server/modules/auth/middleware/requireGuest.js</title>
<path fill="none" stroke="#3e6c67" stroke-width="2" d="M404.7,-207.51C417.54,-227.29 449.81,-273.19 488,-299 493.08,-302.43 498.75,-305.39 504.54,-307.93"/>
<polygon fill="#3e6c67" stroke="#3e6c67" stroke-width="2" points="510.8,-310.44 503.13,-310.76 509.63,-310.51 504.12,-308.3 504.31,-307.83 504.49,-307.37 510,-309.58 505.48,-304.91 510.8,-310.44"/>
</g>
<!-- server/modules/auth/services/loginService.js -->
<g id="node19" class="node">
<title>server/modules/auth/services/loginService.js</title>
<g id="a_node19"><a xlink:href="server/modules/auth/services/loginService.js" xlink:title="loginService.js">
<path fill="#c43a47" stroke="#843145" d="M582.71,-238.25C582.71,-238.25 519.04,-238.25 519.04,-238.25 515.96,-238.25 512.88,-235.17 512.88,-232.08 512.88,-232.08 512.88,-225.92 512.88,-225.92 512.88,-222.83 515.96,-219.75 519.04,-219.75 519.04,-219.75 582.71,-219.75 582.71,-219.75 585.79,-219.75 588.88,-222.83 588.88,-225.92 588.88,-225.92 588.88,-232.08 588.88,-232.08 588.88,-235.17 585.79,-238.25 582.71,-238.25"/>
<text xml:space="preserve" text-anchor="start" x="520.88" y="-226" font-family="Helvetica,sans-Serif" font-size="9.00" fill="#ffffff">loginService.js</text>
</a>
</g>
</g>
<!-- server/modules/auth/authRoutes.js&#45;&gt;server/modules/auth/services/loginService.js -->
<g id="edge17" class="edge">
<title>server/modules/auth/authRoutes.js&#45;&gt;server/modules/auth/services/loginService.js</title>
<path fill="none" stroke="#3e6c67" stroke-width="2" d="M434.18,-205.27C454.89,-209.51 481.25,-214.92 503.58,-219.5"/>
<polygon fill="#3e6c67" stroke="#3e6c67" stroke-width="2" points="510.17,-220.86 502.68,-222.53 509.03,-221.13 503.21,-219.94 503.31,-219.45 503.41,-218.96 509.23,-220.15 503.94,-216.36 510.17,-220.86"/>
</g>
<!-- server/modules/auth/services/registerService.js -->
<g id="node20" class="node">
<title>server/modules/auth/services/registerService.js</title>
<g id="a_node20"><a xlink:href="server/modules/auth/services/registerService.js" xlink:title="registerService.js">
<path fill="#c43a47" stroke="#843145" d="M587.96,-269.25C587.96,-269.25 513.79,-269.25 513.79,-269.25 510.71,-269.25 507.62,-266.17 507.62,-263.08 507.62,-263.08 507.62,-256.92 507.62,-256.92 507.62,-253.83 510.71,-250.75 513.79,-250.75 513.79,-250.75 587.96,-250.75 587.96,-250.75 591.04,-250.75 594.12,-253.83 594.12,-256.92 594.12,-256.92 594.12,-263.08 594.12,-263.08 594.12,-266.17 591.04,-269.25 587.96,-269.25"/>
<text xml:space="preserve" text-anchor="start" x="515.62" y="-257" font-family="Helvetica,sans-Serif" font-size="9.00" fill="#ffffff">registerService.js</text>
</a>
</g>
</g>
<!-- server/modules/auth/authRoutes.js&#45;&gt;server/modules/auth/services/registerService.js -->
<g id="edge18" class="edge">
<title>server/modules/auth/authRoutes.js&#45;&gt;server/modules/auth/services/registerService.js</title>
<path fill="none" stroke="#3e6c67" stroke-width="2" d="M414.7,-207.6C432.17,-217.8 461.29,-233.81 488,-244 491.34,-245.28 494.83,-246.48 498.37,-247.62"/>
<polygon fill="#3e6c67" stroke="#3e6c67" stroke-width="2" points="504.88,-249.6 497.27,-250.58 503.72,-249.77 498.03,-248.04 498.18,-247.57 498.32,-247.09 504.01,-248.81 499.09,-244.55 504.88,-249.6"/>
</g>
<!-- server/modules/auth/services/verifyEmailService.js -->
<g id="node21" class="node">
<title>server/modules/auth/services/verifyEmailService.js</title>
<g id="a_node21"><a xlink:href="server/modules/auth/services/verifyEmailService.js" xlink:title="verifyEmailService.js">
<path fill="#c43a47" stroke="#843145" d="M595.08,-207.25C595.08,-207.25 506.67,-207.25 506.67,-207.25 503.58,-207.25 500.5,-204.17 500.5,-201.08 500.5,-201.08 500.5,-194.92 500.5,-194.92 500.5,-191.83 503.58,-188.75 506.67,-188.75 506.67,-188.75 595.08,-188.75 595.08,-188.75 598.17,-188.75 601.25,-191.83 601.25,-194.92 601.25,-194.92 601.25,-201.08 601.25,-201.08 601.25,-204.17 598.17,-207.25 595.08,-207.25"/>
<text xml:space="preserve" text-anchor="start" x="508.5" y="-195" font-family="Helvetica,sans-Serif" font-size="9.00" fill="#ffffff">verifyEmailService.js</text>
</a>
</g>
</g>
<!-- server/modules/auth/authRoutes.js&#45;&gt;server/modules/auth/services/verifyEmailService.js -->
<g id="edge19" class="edge">
<title>server/modules/auth/authRoutes.js&#45;&gt;server/modules/auth/services/verifyEmailService.js</title>
<path fill="none" stroke="#3e6c67" stroke-width="2" d="M434.18,-198C451.05,-198 471.68,-198 490.82,-198"/>
<polygon fill="#3e6c67" stroke="#3e6c67" stroke-width="2" points="497.64,-198 490.64,-201.15 496.58,-198.5 490.64,-198.5 490.64,-198 490.64,-197.5 496.58,-197.5 490.64,-194.85 497.64,-198"/>
</g>
<!-- server/modules/auth/middleware/requirePermission.js -->
<g id="node23" class="node">
<title>server/modules/auth/middleware/requirePermission.js</title>
<g id="a_node23"><a xlink:href="server/modules/auth/middleware/requirePermission.js" xlink:title="requirePermission.js">
<path fill="#c43a47" stroke="#843145" d="M594.71,-392.25C594.71,-392.25 507.04,-392.25 507.04,-392.25 503.96,-392.25 500.88,-389.17 500.88,-386.08 500.88,-386.08 500.88,-379.92 500.88,-379.92 500.88,-376.83 503.96,-373.75 507.04,-373.75 507.04,-373.75 594.71,-373.75 594.71,-373.75 597.79,-373.75 600.88,-376.83 600.88,-379.92 600.88,-379.92 600.88,-386.08 600.88,-386.08 600.88,-389.17 597.79,-392.25 594.71,-392.25"/>
<text xml:space="preserve" text-anchor="start" x="508.88" y="-380" font-family="Helvetica,sans-Serif" font-size="9.00" fill="#ffffff">requirePermission.js</text>
</a>
</g>
</g>
<!-- server/routes/adminRoutes.js&#45;&gt;server/modules/auth/middleware/requirePermission.js -->
<g id="edge23" class="edge">
<title>server/routes/adminRoutes.js&#45;&gt;server/modules/auth/middleware/requirePermission.js</title>
<path fill="none" stroke="#3e6c67" stroke-width="2" d="M437.91,-794.25C452.97,-792.66 469.13,-788.08 480,-777 533.33,-722.65 546.56,-472.47 549.26,-401.7"/>
<polygon fill="#3e6c67" stroke="#3e6c67" stroke-width="2" points="549.5,-395.04 552.4,-402.15 549.97,-396.12 549.75,-402.05 549.25,-402.03 548.75,-402.02 548.97,-396.08 546.1,-401.92 549.5,-395.04"/>
</g>
<!-- server/modules/auth/__tests__/authRoutes.test.js -->
<g id="node9" class="node">
<title>server/modules/auth/__tests__/authRoutes.test.js</title>
<g id="a_node9"><a xlink:href="server/modules/auth/__tests__/authRoutes.test.js" xlink:title="authRoutes.test.js">
<path fill="#c43a47" stroke="#843145" d="M283.21,-207.25C283.21,-207.25 206.79,-207.25 206.79,-207.25 203.71,-207.25 200.62,-204.17 200.62,-201.08 200.62,-201.08 200.62,-194.92 200.62,-194.92 200.62,-191.83 203.71,-188.75 206.79,-188.75 206.79,-188.75 283.21,-188.75 283.21,-188.75 286.29,-188.75 289.38,-191.83 289.38,-194.92 289.38,-194.92 289.38,-201.08 289.38,-201.08 289.38,-204.17 286.29,-207.25 283.21,-207.25"/>
<text xml:space="preserve" text-anchor="start" x="208.62" y="-195" font-family="Helvetica,sans-Serif" font-size="9.00" fill="#ffffff">authRoutes.test.js</text>
</a>
</g>
</g>
<!-- server/modules/auth/__tests__/authRoutes.test.js&#45;&gt;server/modules/auth/authRoutes.js -->
<g id="edge7" class="edge">
<title>server/modules/auth/__tests__/authRoutes.test.js&#45;&gt;server/modules/auth/authRoutes.js</title>
<path fill="none" stroke="#3e6c67" stroke-width="2" d="M289.6,-198C309.18,-198 332.26,-198 351.98,-198"/>
<polygon fill="#3e6c67" stroke="#3e6c67" stroke-width="2" points="358.92,-198 351.92,-201.15 357.86,-198.5 351.92,-198.5 351.92,-198 351.92,-197.5 357.86,-197.5 351.92,-194.85 358.92,-198"/>
</g>
<!-- server/modules/auth/__tests__/emailResend.test.js -->
<g id="node10" class="node">
<title>server/modules/auth/__tests__/emailResend.test.js</title>
<g id="a_node10"><a xlink:href="server/modules/auth/__tests__/emailResend.test.js" xlink:title="emailResend.test.js">
<path fill="#c43a47" stroke="#843145" d="M286.96,-238.25C286.96,-238.25 203.04,-238.25 203.04,-238.25 199.96,-238.25 196.88,-235.17 196.88,-232.08 196.88,-232.08 196.88,-225.92 196.88,-225.92 196.88,-222.83 199.96,-219.75 203.04,-219.75 203.04,-219.75 286.96,-219.75 286.96,-219.75 290.04,-219.75 293.12,-222.83 293.12,-225.92 293.12,-225.92 293.12,-232.08 293.12,-232.08 293.12,-235.17 290.04,-238.25 286.96,-238.25"/>
<text xml:space="preserve" text-anchor="start" x="204.88" y="-226" font-family="Helvetica,sans-Serif" font-size="9.00" fill="#ffffff">emailResend.test.js</text>
</a>
</g>
</g>
<!-- server/modules/auth/__tests__/emailResend.test.js&#45;&gt;server/modules/auth/authRoutes.js -->
<g id="edge8" class="edge">
<title>server/modules/auth/__tests__/emailResend.test.js&#45;&gt;server/modules/auth/authRoutes.js</title>
<path fill="none" stroke="#3e6c67" stroke-width="2" d="M293.28,-219.28C312.19,-215.39 333.86,-210.93 352.46,-207.11"/>
<polygon fill="#3e6c67" stroke="#3e6c67" stroke-width="2" points="359.21,-205.72 352.99,-210.22 358.27,-206.42 352.45,-207.62 352.35,-207.13 352.25,-206.64 358.07,-205.44 351.72,-204.04 359.21,-205.72"/>
</g>
<!-- server/modules/auth/__tests__/emailVerification.test.js -->
<g id="node11" class="node">
<title>server/modules/auth/__tests__/emailVerification.test.js</title>
<g id="a_node11"><a xlink:href="server/modules/auth/__tests__/emailVerification.test.js" xlink:title="emailVerification.test.js">
<path fill="#c43a47" stroke="#843145" d="M293.33,-269.25C293.33,-269.25 196.67,-269.25 196.67,-269.25 193.58,-269.25 190.5,-266.17 190.5,-263.08 190.5,-263.08 190.5,-256.92 190.5,-256.92 190.5,-253.83 193.58,-250.75 196.67,-250.75 196.67,-250.75 293.33,-250.75 293.33,-250.75 296.42,-250.75 299.5,-253.83 299.5,-256.92 299.5,-256.92 299.5,-263.08 299.5,-263.08 299.5,-266.17 296.42,-269.25 293.33,-269.25"/>
<text xml:space="preserve" text-anchor="start" x="198.5" y="-257" font-family="Helvetica,sans-Serif" font-size="9.00" fill="#ffffff">emailVerification.test.js</text>
</a>
</g>
</g>
<!-- server/modules/auth/__tests__/emailVerification.test.js&#45;&gt;server/modules/auth/authRoutes.js -->
<g id="edge9" class="edge">
<title>server/modules/auth/__tests__/emailVerification.test.js&#45;&gt;server/modules/auth/authRoutes.js</title>
<path fill="none" stroke="#3e6c67" stroke-width="2" d="M288.4,-250.29C294.88,-248.43 301.42,-246.32 307.5,-244 330.45,-235.23 355.18,-222.17 372.78,-212.21"/>
<polygon fill="#3e6c67" stroke="#3e6c67" stroke-width="2" points="378.69,-208.81 374.19,-215.03 378.01,-209.77 372.87,-212.73 372.62,-212.3 372.37,-211.86 377.52,-208.91 371.05,-209.57 378.69,-208.81"/>
</g>
<!-- server/modules/auth/__tests__/login.test.js -->
<g id="node12" class="node">
<title>server/modules/auth/__tests__/login.test.js</title>
<g id="a_node12"><a xlink:href="server/modules/auth/__tests__/login.test.js" xlink:title="login.test.js">
<path fill="#c43a47" stroke="#843145" d="M269.71,-145.25C269.71,-145.25 220.29,-145.25 220.29,-145.25 217.21,-145.25 214.12,-142.17 214.12,-139.08 214.12,-139.08 214.12,-132.92 214.12,-132.92 214.12,-129.83 217.21,-126.75 220.29,-126.75 220.29,-126.75 269.71,-126.75 269.71,-126.75 272.79,-126.75 275.88,-129.83 275.88,-132.92 275.88,-132.92 275.88,-139.08 275.88,-139.08 275.88,-142.17 272.79,-145.25 269.71,-145.25"/>
<text xml:space="preserve" text-anchor="start" x="222.12" y="-133" font-family="Helvetica,sans-Serif" font-size="9.00" fill="#ffffff">login.test.js</text>
</a>
</g>
</g>
<!-- server/modules/auth/__tests__/login.test.js&#45;&gt;server/modules/auth/authRoutes.js -->
<g id="edge10" class="edge">
<title>server/modules/auth/__tests__/login.test.js&#45;&gt;server/modules/auth/authRoutes.js</title>
<path fill="none" stroke="#3e6c67" stroke-width="2" d="M276.13,-142.43C286.25,-144.96 297.5,-148.18 307.5,-152 330.45,-160.77 355.18,-173.83 372.78,-183.79"/>
<polygon fill="#3e6c67" stroke="#3e6c67" stroke-width="2" points="378.69,-187.19 371.05,-186.43 377.52,-187.09 372.37,-184.14 372.62,-183.7 372.87,-183.27 378.01,-186.23 374.19,-180.97 378.69,-187.19"/>
</g>
<!-- server/modules/auth/__tests__/register.test.js -->
<g id="node13" class="node">
<title>server/modules/auth/__tests__/register.test.js</title>
<g id="a_node13"><a xlink:href="server/modules/auth/__tests__/register.test.js" xlink:title="register.test.js">
<path fill="#c43a47" stroke="#843145" d="M274.58,-176.25C274.58,-176.25 215.42,-176.25 215.42,-176.25 212.33,-176.25 209.25,-173.17 209.25,-170.08 209.25,-170.08 209.25,-163.92 209.25,-163.92 209.25,-160.83 212.33,-157.75 215.42,-157.75 215.42,-157.75 274.58,-157.75 274.58,-157.75 277.67,-157.75 280.75,-160.83 280.75,-163.92 280.75,-163.92 280.75,-170.08 280.75,-170.08 280.75,-173.17 277.67,-176.25 274.58,-176.25"/>
<text xml:space="preserve" text-anchor="start" x="217.25" y="-164" font-family="Helvetica,sans-Serif" font-size="9.00" fill="#ffffff">register.test.js</text>
</a>
</g>
</g>
<!-- server/modules/auth/__tests__/register.test.js&#45;&gt;server/modules/auth/authRoutes.js -->
<g id="edge11" class="edge">
<title>server/modules/auth/__tests__/register.test.js&#45;&gt;server/modules/auth/authRoutes.js</title>
<path fill="none" stroke="#3e6c67" stroke-width="2" d="M280.96,-174.19C302.14,-178.54 329.36,-184.14 352.08,-188.81"/>
<polygon fill="#3e6c67" stroke="#3e6c67" stroke-width="2" points="358.8,-190.2 351.31,-191.87 357.66,-190.47 351.85,-189.28 351.95,-188.79 352.05,-188.3 357.86,-189.49 352.58,-185.7 358.8,-190.2"/>
</g>
<!-- server/modules/auth/authSchemas.js -->
<g id="node22" class="node">
<title>server/modules/auth/authSchemas.js</title>
<g id="a_node22"><a xlink:href="server/modules/auth/authSchemas.js" xlink:title="authSchemas.js">
<path fill="#c43a47" stroke="#843145" d="M696.83,-89.25C696.83,-89.25 627.92,-89.25 627.92,-89.25 624.83,-89.25 621.75,-86.17 621.75,-83.08 621.75,-83.08 621.75,-76.92 621.75,-76.92 621.75,-73.83 624.83,-70.75 627.92,-70.75 627.92,-70.75 696.83,-70.75 696.83,-70.75 699.92,-70.75 703,-73.83 703,-76.92 703,-76.92 703,-83.08 703,-83.08 703,-86.17 699.92,-89.25 696.83,-89.25"/>
<text xml:space="preserve" text-anchor="start" x="629.75" y="-77" font-family="Helvetica,sans-Serif" font-size="9.00" fill="#ffffff">authSchemas.js</text>
</a>
</g>
</g>
<!-- server/modules/auth/controllers/loginController.js&#45;&gt;server/modules/auth/authSchemas.js -->
<g id="edge20" class="edge">
<title>server/modules/auth/controllers/loginController.js&#45;&gt;server/modules/auth/authSchemas.js</title>
<path fill="none" stroke="#3e6c67" stroke-width="2" d="M590.58,-101.32C598.27,-99.31 606.28,-97.14 613.75,-95 616.62,-94.18 619.59,-93.3 622.57,-92.41"/>
<polygon fill="#3e6c67" stroke="#3e6c67" stroke-width="2" points="629.14,-90.39 623.37,-95.46 628.27,-91.18 622.59,-92.92 622.45,-92.44 622.3,-91.97 627.98,-90.23 621.52,-89.43 629.14,-90.39"/>
</g>
<!-- server/modules/auth/controllers/registerController.js&#45;&gt;server/modules/auth/authSchemas.js -->
<g id="edge21" class="edge">
<title>server/modules/auth/controllers/registerController.js&#45;&gt;server/modules/auth/authSchemas.js</title>
<path fill="none" stroke="#3e6c67" stroke-width="2" d="M590.58,-58.68C598.27,-60.69 606.28,-62.86 613.75,-65 616.62,-65.82 619.59,-66.7 622.57,-67.59"/>
<polygon fill="#3e6c67" stroke="#3e6c67" stroke-width="2" points="629.14,-69.61 621.52,-70.57 627.98,-69.77 622.3,-68.03 622.45,-67.56 622.59,-67.08 628.27,-68.82 623.37,-64.54 629.14,-69.61"/>
</g>
<!-- server/modules/auth/controllers/verifyEmailController.js&#45;&gt;server/modules/auth/authSchemas.js -->
<g id="edge22" class="edge">
<title>server/modules/auth/controllers/verifyEmailController.js&#45;&gt;server/modules/auth/authSchemas.js</title>
<path fill="none" stroke="#3e6c67" stroke-width="2" d="M605.98,-80C608.08,-80 610.19,-80 612.28,-80"/>
<polygon fill="#3e6c67" stroke="#3e6c67" stroke-width="2" points="618.9,-80 611.9,-83.15 617.84,-80.5 611.9,-80.5 611.9,-80 611.9,-79.5 617.84,-79.5 611.9,-76.85 618.9,-80"/>
</g>
<!-- server/server.js -->
<g id="node24" class="node">
<title>server/server.js</title>
<g id="a_node24"><a xlink:href="server/server.js" xlink:title="server.js">
<path fill="#c43a47" stroke="#843145" d="M108.08,-731.25C108.08,-731.25 66.42,-731.25 66.42,-731.25 63.33,-731.25 60.25,-728.17 60.25,-725.08 60.25,-725.08 60.25,-718.92 60.25,-718.92 60.25,-715.83 63.33,-712.75 66.42,-712.75 66.42,-712.75 108.08,-712.75 108.08,-712.75 111.17,-712.75 114.25,-715.83 114.25,-718.92 114.25,-718.92 114.25,-725.08 114.25,-725.08 114.25,-728.17 111.17,-731.25 108.08,-731.25"/>
<text xml:space="preserve" text-anchor="start" x="70.38" y="-719" font-family="Helvetica,sans-Serif" font-size="9.00" fill="#ffffff">server.js</text>
</a>
</g>
</g>
<!-- server/server.js&#45;&gt;server/dbConnect/createPool.js -->
<g id="edge24" class="edge">
<title>server/server.js&#45;&gt;server/dbConnect/createPool.js</title>
<path fill="none" stroke="#3e6c67" stroke-width="2" d="M114.67,-717.59C138.3,-713.65 173.36,-707.79 201.02,-703.17"/>
<polygon fill="#3e6c67" stroke="#3e6c67" stroke-width="2" points="207.69,-702.06 201.3,-706.32 206.72,-702.73 200.86,-703.71 200.78,-703.21 200.7,-702.72 206.55,-701.74 200.26,-700.11 207.69,-702.06"/>
</g>
<!-- server/server.js&#45;&gt;server/expressApp.js -->
<g id="edge25" class="edge">
<title>server/server.js&#45;&gt;server/expressApp.js</title>
<path fill="none" stroke="#3e6c67" stroke-width="2" d="M114.67,-726.58C137.67,-730.57 171.52,-736.43 198.81,-741.17"/>
<polygon fill="#3e6c67" stroke="#3e6c67" stroke-width="2" points="205.39,-742.31 197.96,-744.22 204.26,-742.62 198.41,-741.6 198.5,-741.11 198.58,-740.62 204.43,-741.63 199.04,-738.01 205.39,-742.31"/>
</g>
<!-- server/tests/middleware/auth/requireAuth.test.js -->
<g id="node25" class="node">
<title>server/tests/middleware/auth/requireAuth.test.js</title>
<g id="a_node25"><a xlink:href="server/tests/middleware/auth/requireAuth.test.js" xlink:title="requireAuth.test.js">
<path fill="#c43a47" stroke="#843145" d="M436.33,-554.25C436.33,-554.25 359.17,-554.25 359.17,-554.25 356.08,-554.25 353,-551.17 353,-548.08 353,-548.08 353,-541.92 353,-541.92 353,-538.83 356.08,-535.75 359.17,-535.75 359.17,-535.75 436.33,-535.75 436.33,-535.75 439.42,-535.75 442.5,-538.83 442.5,-541.92 442.5,-541.92 442.5,-548.08 442.5,-548.08 442.5,-551.17 439.42,-554.25 436.33,-554.25"/>
<text xml:space="preserve" text-anchor="start" x="361" y="-542" font-family="Helvetica,sans-Serif" font-size="9.00" fill="#ffffff">requireAuth.test.js</text>
</a>
</g>
</g>
<!-- server/tests/middleware/auth/requireAuth.test.js&#45;&gt;server/modules/auth/middleware/requireAuth.js -->
<g id="edge26" class="edge">
<title>server/tests/middleware/auth/requireAuth.test.js&#45;&gt;server/modules/auth/middleware/requireAuth.js</title>
<path fill="none" stroke="#3e6c67" stroke-width="2" d="M442.86,-546.42C456.72,-544.5 470.78,-539.66 480,-529 503.43,-501.9 465.37,-395.77 488,-368 492.53,-362.44 498.73,-358.66 505.45,-356.13"/>
<polygon fill="#3e6c67" stroke="#3e6c67" stroke-width="2" points="511.83,-354.24 506.02,-359.25 510.96,-355.02 505.26,-356.71 505.12,-356.23 504.98,-355.75 510.67,-354.06 504.23,-353.21 511.83,-354.24"/>
</g>
<!-- server/tests/middleware/auth/requireGuest.test.js -->
<g id="node26" class="node">
<title>server/tests/middleware/auth/requireGuest.test.js</title>
<g id="a_node26"><a xlink:href="server/tests/middleware/auth/requireGuest.test.js" xlink:title="requireGuest.test.js">
<path fill="#c43a47" stroke="#843145" d="M438.96,-523.25C438.96,-523.25 356.54,-523.25 356.54,-523.25 353.46,-523.25 350.38,-520.17 350.38,-517.08 350.38,-517.08 350.38,-510.92 350.38,-510.92 350.38,-507.83 353.46,-504.75 356.54,-504.75 356.54,-504.75 438.96,-504.75 438.96,-504.75 442.04,-504.75 445.12,-507.83 445.12,-510.92 445.12,-510.92 445.12,-517.08 445.12,-517.08 445.12,-520.17 442.04,-523.25 438.96,-523.25"/>
<text xml:space="preserve" text-anchor="start" x="358.38" y="-511" font-family="Helvetica,sans-Serif" font-size="9.00" fill="#ffffff">requireGuest.test.js</text>
</a>
</g>
</g>
<!-- server/tests/middleware/auth/requireGuest.test.js&#45;&gt;server/modules/auth/middleware/requireGuest.js -->
<g id="edge27" class="edge">
<title>server/tests/middleware/auth/requireGuest.test.js&#45;&gt;server/modules/auth/middleware/requireGuest.js</title>
<path fill="none" stroke="#3e6c67" stroke-width="2" d="M418.42,-504.43C437.83,-493.82 466.47,-474.75 480,-449 491.6,-426.91 472.03,-356.17 488,-337 491.96,-332.25 497.13,-328.8 502.8,-326.33"/>
<polygon fill="#3e6c67" stroke="#3e6c67" stroke-width="2" points="509.07,-324.15 503.49,-329.42 508.23,-324.97 502.62,-326.92 502.46,-326.45 502.29,-325.97 507.9,-324.03 501.42,-323.47 509.07,-324.15"/>
</g>
<!-- server/tests/middleware/auth/requirePermission.test.js -->
<g id="node27" class="node">
<title>server/tests/middleware/auth/requirePermission.test.js</title>
<g id="a_node27"><a xlink:href="server/tests/middleware/auth/requirePermission.test.js" xlink:title="requirePermission.test.js">
<path fill="#c43a47" stroke="#843145" d="M449.83,-585.25C449.83,-585.25 345.67,-585.25 345.67,-585.25 342.58,-585.25 339.5,-582.17 339.5,-579.08 339.5,-579.08 339.5,-572.92 339.5,-572.92 339.5,-569.83 342.58,-566.75 345.67,-566.75 345.67,-566.75 449.83,-566.75 449.83,-566.75 452.92,-566.75 456,-569.83 456,-572.92 456,-572.92 456,-579.08 456,-579.08 456,-582.17 452.92,-585.25 449.83,-585.25"/>
<text xml:space="preserve" text-anchor="start" x="347.5" y="-573" font-family="Helvetica,sans-Serif" font-size="9.00" fill="#ffffff">requirePermission.test.js</text>
</a>
</g>
</g>
<!-- server/tests/middleware/auth/requirePermission.test.js&#45;&gt;server/modules/auth/middleware/requirePermission.js -->
<g id="edge28" class="edge">
<title>server/tests/middleware/auth/requirePermission.test.js&#45;&gt;server/modules/auth/middleware/requirePermission.js</title>
<path fill="none" stroke="#3e6c67" stroke-width="2" d="M456.21,-572.19C464.85,-569.59 473.15,-565.71 480,-560 529.42,-518.83 544.08,-437.9 548.27,-401.51"/>
<polygon fill="#3e6c67" stroke="#3e6c67" stroke-width="2" points="548.95,-394.92 551.37,-402.2 549.34,-396.02 548.73,-401.93 548.24,-401.88 547.74,-401.83 548.34,-395.92 545.1,-401.56 548.95,-394.92"/>
</g>
<!-- src/App.jsx -->
<g id="node28" class="node">
<title>src/App.jsx</title>
<g id="a_node28"><a xlink:href="src/App.jsx" xlink:title="App.jsx">
<path fill="#3a8bc1" stroke="#216182" d="M265.83,-1261.25C265.83,-1261.25 224.17,-1261.25 224.17,-1261.25 221.08,-1261.25 218,-1258.17 218,-1255.08 218,-1255.08 218,-1248.92 218,-1248.92 218,-1245.83 221.08,-1242.75 224.17,-1242.75 224.17,-1242.75 265.83,-1242.75 265.83,-1242.75 268.92,-1242.75 272,-1245.83 272,-1248.92 272,-1248.92 272,-1255.08 272,-1255.08 272,-1258.17 268.92,-1261.25 265.83,-1261.25"/>
<text xml:space="preserve" text-anchor="start" x="230" y="-1249" font-family="Helvetica,sans-Serif" font-size="9.00" fill="#ffffff">App.jsx</text>
</a>
</g>
</g>
<!-- src/components/ui/button.jsx -->
<g id="node29" class="node">
<title>src/components/ui/button.jsx</title>
<g id="a_node29"><a xlink:href="src/components/ui/button.jsx" xlink:title="no&#45;orphans">
<path fill="#3a8bc1" stroke="#216182" d="M108.58,-937.25C108.58,-937.25 65.92,-937.25 65.92,-937.25 62.83,-937.25 59.75,-934.17 59.75,-931.08 59.75,-931.08 59.75,-924.92 59.75,-924.92 59.75,-921.83 62.83,-918.75 65.92,-918.75 65.92,-918.75 108.58,-918.75 108.58,-918.75 111.67,-918.75 114.75,-921.83 114.75,-924.92 114.75,-924.92 114.75,-931.08 114.75,-931.08 114.75,-934.17 111.67,-937.25 108.58,-937.25"/>
<text xml:space="preserve" text-anchor="start" x="67.75" y="-925" font-family="Helvetica,sans-Serif" font-size="9.00" fill="#ffffff">button.jsx</text>
</a>
</g>
</g>
<!-- src/index.css -->
<g id="node30" class="node">
<title>src/index.css</title>
<g id="a_node30"><a xlink:href="src/index.css" xlink:title="index.css">
<path fill="#3a8bc1" stroke="#216182" d="M265.96,-1292.25C265.96,-1292.25 224.04,-1292.25 224.04,-1292.25 220.96,-1292.25 217.88,-1289.17 217.88,-1286.08 217.88,-1286.08 217.88,-1279.92 217.88,-1279.92 217.88,-1276.83 220.96,-1273.75 224.04,-1273.75 224.04,-1273.75 265.96,-1273.75 265.96,-1273.75 269.04,-1273.75 272.12,-1276.83 272.12,-1279.92 272.12,-1279.92 272.12,-1286.08 272.12,-1286.08 272.12,-1289.17 269.04,-1292.25 265.96,-1292.25"/>
<text xml:space="preserve" text-anchor="start" x="225.88" y="-1280" font-family="Helvetica,sans-Serif" font-size="9.00" fill="#ffffff">index.css</text>
</a>
</g>
</g>
<!-- src/lib/utils.js -->
<g id="node31" class="node">
<title>src/lib/utils.js</title>
<g id="a_node31"><a xlink:href="src/lib/utils.js" xlink:title="no&#45;orphans">
<path fill="#3a8bc1" stroke="#216182" d="M108.08,-1025.25C108.08,-1025.25 66.42,-1025.25 66.42,-1025.25 63.33,-1025.25 60.25,-1022.17 60.25,-1019.08 60.25,-1019.08 60.25,-1012.92 60.25,-1012.92 60.25,-1009.83 63.33,-1006.75 66.42,-1006.75 66.42,-1006.75 108.08,-1006.75 108.08,-1006.75 111.17,-1006.75 114.25,-1009.83 114.25,-1012.92 114.25,-1012.92 114.25,-1019.08 114.25,-1019.08 114.25,-1022.17 111.17,-1025.25 108.08,-1025.25"/>
<text xml:space="preserve" text-anchor="start" x="74.5" y="-1013" font-family="Helvetica,sans-Serif" font-size="9.00" fill="#ffffff">utils.js</text>
</a>
</g>
</g>
<!-- src/main.jsx -->
<g id="node32" class="node">
<title>src/main.jsx</title>
<g id="a_node32"><a xlink:href="src/main.jsx" xlink:title="main.jsx">
<path fill="#3a8bc1" stroke="#216182" d="M108.08,-1292.25C108.08,-1292.25 66.42,-1292.25 66.42,-1292.25 63.33,-1292.25 60.25,-1289.17 60.25,-1286.08 60.25,-1286.08 60.25,-1279.92 60.25,-1279.92 60.25,-1276.83 63.33,-1273.75 66.42,-1273.75 66.42,-1273.75 108.08,-1273.75 108.08,-1273.75 111.17,-1273.75 114.25,-1276.83 114.25,-1279.92 114.25,-1279.92 114.25,-1286.08 114.25,-1286.08 114.25,-1289.17 111.17,-1292.25 108.08,-1292.25"/>
<text xml:space="preserve" text-anchor="start" x="70.38" y="-1280" font-family="Helvetica,sans-Serif" font-size="9.00" fill="#ffffff">main.jsx</text>
</a>
</g>
</g>
<!-- src/main.jsx&#45;&gt;src/App.jsx -->
<g id="edge29" class="edge">
<title>src/main.jsx&#45;&gt;src/App.jsx</title>
<path fill="none" stroke="#3e6c67" stroke-width="2" d="M114.67,-1277.74C140.48,-1272.6 179.94,-1264.75 208.48,-1259.07"/>
<polygon fill="#3e6c67" stroke="#3e6c67" stroke-width="2" points="215.32,-1257.71 209.07,-1262.16 214.37,-1258.41 208.55,-1259.57 208.45,-1259.07 208.36,-1258.58 214.18,-1257.43 207.84,-1255.99 215.32,-1257.71"/>
</g>
<!-- src/main.jsx&#45;&gt;src/index.css -->
<g id="edge30" class="edge">
<title>src/main.jsx&#45;&gt;src/index.css</title>
<path fill="none" stroke="#3e6c67" stroke-width="2" d="M114.67,-1283C140.4,-1283 179.7,-1283 208.22,-1283"/>
<polygon fill="#3e6c67" stroke="#3e6c67" stroke-width="2" points="215.01,-1283 208.01,-1286.15 213.95,-1283.5 208.01,-1283.5 208.01,-1283 208.01,-1282.5 213.95,-1282.5 208.01,-1279.85 215.01,-1283"/>
</g>
<!-- src/pages/HomePage.jsx -->
<g id="node33" class="node">
<title>src/pages/HomePage.jsx</title>
<g id="a_node33"><a xlink:href="src/pages/HomePage.jsx" xlink:title="no&#45;orphans">
<path fill="#3a8bc1" stroke="#216182" d="M119.08,-1147.25C119.08,-1147.25 55.42,-1147.25 55.42,-1147.25 52.33,-1147.25 49.25,-1144.17 49.25,-1141.08 49.25,-1141.08 49.25,-1134.92 49.25,-1134.92 49.25,-1131.83 52.33,-1128.75 55.42,-1128.75 55.42,-1128.75 119.08,-1128.75 119.08,-1128.75 122.17,-1128.75 125.25,-1131.83 125.25,-1134.92 125.25,-1134.92 125.25,-1141.08 125.25,-1141.08 125.25,-1144.17 122.17,-1147.25 119.08,-1147.25"/>
<text xml:space="preserve" text-anchor="start" x="57.25" y="-1135" font-family="Helvetica,sans-Serif" font-size="9.00" fill="#ffffff">HomePage.jsx</text>
</a>
</g>
</g>
<!-- src/pages/dev/DesignSystemPage.jsx -->
<g id="node34" class="node">
<title>src/pages/dev/DesignSystemPage.jsx</title>
<g id="a_node34"><a xlink:href="src/pages/dev/DesignSystemPage.jsx" xlink:title="no&#45;orphans">
<path fill="#3a8bc1" stroke="#216182" d="M136.33,-1094.25C136.33,-1094.25 38.17,-1094.25 38.17,-1094.25 35.08,-1094.25 32,-1091.17 32,-1088.08 32,-1088.08 32,-1081.92 32,-1081.92 32,-1078.83 35.08,-1075.75 38.17,-1075.75 38.17,-1075.75 136.33,-1075.75 136.33,-1075.75 139.42,-1075.75 142.5,-1078.83 142.5,-1081.92 142.5,-1081.92 142.5,-1088.08 142.5,-1088.08 142.5,-1091.17 139.42,-1094.25 136.33,-1094.25"/>
<text xml:space="preserve" text-anchor="start" x="40" y="-1082" font-family="Helvetica,sans-Serif" font-size="9.00" fill="#ffffff">DesignSystemPage.jsx</text>
</a>
</g>
</g>
<!-- src/router/AppRoutes.jsx -->
<g id="node35" class="node">
<title>src/router/AppRoutes.jsx</title>
<g id="a_node35"><a xlink:href="src/router/AppRoutes.jsx" xlink:title="no&#45;orphans">
<path fill="#3a8bc1" stroke="#216182" d="M118.71,-1208.25C118.71,-1208.25 55.79,-1208.25 55.79,-1208.25 52.71,-1208.25 49.62,-1205.17 49.62,-1202.08 49.62,-1202.08 49.62,-1195.92 49.62,-1195.92 49.62,-1192.83 52.71,-1189.75 55.79,-1189.75 55.79,-1189.75 118.71,-1189.75 118.71,-1189.75 121.79,-1189.75 124.88,-1192.83 124.88,-1195.92 124.88,-1195.92 124.88,-1202.08 124.88,-1202.08 124.88,-1205.17 121.79,-1208.25 118.71,-1208.25"/>
<text xml:space="preserve" text-anchor="start" x="57.62" y="-1196" font-family="Helvetica,sans-Serif" font-size="9.00" fill="#ffffff">AppRoutes.jsx</text>
</a>
</g>
</g>
<!-- src/router/DevRoutes.jsx -->
<g id="node36" class="node">
<title>src/router/DevRoutes.jsx</title>
<g id="a_node36"><a xlink:href="src/router/DevRoutes.jsx" xlink:title="no&#45;orphans">
<path fill="#3a8bc1" stroke="#216182" d="M118.71,-1239.25C118.71,-1239.25 55.79,-1239.25 55.79,-1239.25 52.71,-1239.25 49.62,-1236.17 49.62,-1233.08 49.62,-1233.08 49.62,-1226.92 49.62,-1226.92 49.62,-1223.83 52.71,-1220.75 55.79,-1220.75 55.79,-1220.75 118.71,-1220.75 118.71,-1220.75 121.79,-1220.75 124.88,-1223.83 124.88,-1226.92 124.88,-1226.92 124.88,-1233.08 124.88,-1233.08 124.88,-1236.17 121.79,-1239.25 118.71,-1239.25"/>
<text xml:space="preserve" text-anchor="start" x="57.62" y="-1227" font-family="Helvetica,sans-Serif" font-size="9.00" fill="#ffffff">DevRoutes.jsx</text>
</a>
</g>
</g>
</g>
</svg>
